<mxfile host="app.diagrams.net" modified="2024-02-15T18:17:20.190Z" agent="Mozilla/5.0 (Windows NT 10.0; Win64; x64) AppleWebKit/537.36 (KHTML, like Gecko) Chrome/121.0.0.0 Safari/537.36" etag="S82oLisz9IARx7s_WHcY" version="23.1.4" type="device" pages="4">
  <diagram name="Página-1" id="GNa0BqqRPAHtuB8aMVp0">
    <mxGraphModel dx="1500" dy="807" grid="1" gridSize="10" guides="1" tooltips="1" connect="1" arrows="1" fold="1" page="1" pageScale="1" pageWidth="827" pageHeight="1169" math="0" shadow="0">
      <root>
        <mxCell id="0" />
        <mxCell id="1" parent="0" />
        <mxCell id="yisJrsWNtF7iBzPSPrLm-3" value="" style="edgeStyle=orthogonalEdgeStyle;rounded=0;orthogonalLoop=1;jettySize=auto;html=1;" edge="1" parent="1" source="yisJrsWNtF7iBzPSPrLm-1" target="yisJrsWNtF7iBzPSPrLm-2">
          <mxGeometry relative="1" as="geometry" />
        </mxCell>
        <mxCell id="yisJrsWNtF7iBzPSPrLm-1" value="início" style="strokeWidth=2;html=1;shape=mxgraph.flowchart.start_1;whiteSpace=wrap;fillColor=#99FF99;strokeColor=#00CC00;" vertex="1" parent="1">
          <mxGeometry x="60" y="30" width="120" height="60" as="geometry" />
        </mxCell>
        <mxCell id="yisJrsWNtF7iBzPSPrLm-5" value="" style="edgeStyle=orthogonalEdgeStyle;rounded=0;orthogonalLoop=1;jettySize=auto;html=1;" edge="1" parent="1" source="yisJrsWNtF7iBzPSPrLm-2" target="yisJrsWNtF7iBzPSPrLm-4">
          <mxGeometry relative="1" as="geometry" />
        </mxCell>
        <mxCell id="yisJrsWNtF7iBzPSPrLm-2" value="recebe o 1° número&amp;nbsp;" style="shape=parallelogram;perimeter=parallelogramPerimeter;whiteSpace=wrap;html=1;fixedSize=1;fillColor=#FF9933;strokeWidth=2;strokeColor=#CC6600;" vertex="1" parent="1">
          <mxGeometry x="50" y="120" width="140" height="60" as="geometry" />
        </mxCell>
        <mxCell id="yisJrsWNtF7iBzPSPrLm-7" value="" style="edgeStyle=orthogonalEdgeStyle;rounded=0;orthogonalLoop=1;jettySize=auto;html=1;" edge="1" parent="1" source="yisJrsWNtF7iBzPSPrLm-4" target="yisJrsWNtF7iBzPSPrLm-6">
          <mxGeometry relative="1" as="geometry" />
        </mxCell>
        <mxCell id="yisJrsWNtF7iBzPSPrLm-4" value="recebe o 2° número&lt;br&gt;" style="shape=parallelogram;perimeter=parallelogramPerimeter;whiteSpace=wrap;html=1;fixedSize=1;fillColor=#FF9933;strokeWidth=2;strokeColor=#CC6600;" vertex="1" parent="1">
          <mxGeometry x="50" y="210" width="140" height="60" as="geometry" />
        </mxCell>
        <mxCell id="yisJrsWNtF7iBzPSPrLm-9" value="" style="edgeStyle=orthogonalEdgeStyle;rounded=0;orthogonalLoop=1;jettySize=auto;html=1;" edge="1" parent="1" source="yisJrsWNtF7iBzPSPrLm-6" target="yisJrsWNtF7iBzPSPrLm-8">
          <mxGeometry relative="1" as="geometry" />
        </mxCell>
        <mxCell id="yisJrsWNtF7iBzPSPrLm-6" value="realiza a soma dos números" style="whiteSpace=wrap;html=1;fillColor=#66B2FF;strokeWidth=2;strokeColor=#0066CC;" vertex="1" parent="1">
          <mxGeometry x="50" y="310" width="140" height="60" as="geometry" />
        </mxCell>
        <mxCell id="yisJrsWNtF7iBzPSPrLm-11" value="" style="edgeStyle=orthogonalEdgeStyle;rounded=0;orthogonalLoop=1;jettySize=auto;html=1;" edge="1" parent="1" source="yisJrsWNtF7iBzPSPrLm-8" target="yisJrsWNtF7iBzPSPrLm-10">
          <mxGeometry relative="1" as="geometry" />
        </mxCell>
        <mxCell id="yisJrsWNtF7iBzPSPrLm-8" value="exibe o resultado da soma&amp;nbsp;&lt;br&gt;" style="strokeWidth=2;html=1;shape=mxgraph.flowchart.display;whiteSpace=wrap;fillColor=#FF9933;strokeColor=#CC6600;" vertex="1" parent="1">
          <mxGeometry x="60" y="430" width="120" height="60" as="geometry" />
        </mxCell>
        <mxCell id="yisJrsWNtF7iBzPSPrLm-10" value="fim" style="strokeWidth=2;html=1;shape=mxgraph.flowchart.start_2;whiteSpace=wrap;fillColor=#FF3333;strokeColor=#CC0000;" vertex="1" parent="1">
          <mxGeometry x="80" y="530" width="80" height="70" as="geometry" />
        </mxCell>
        <mxCell id="yisJrsWNtF7iBzPSPrLm-14" value="" style="edgeStyle=orthogonalEdgeStyle;rounded=0;orthogonalLoop=1;jettySize=auto;html=1;" edge="1" parent="1" source="yisJrsWNtF7iBzPSPrLm-12" target="yisJrsWNtF7iBzPSPrLm-13">
          <mxGeometry relative="1" as="geometry" />
        </mxCell>
        <mxCell id="yisJrsWNtF7iBzPSPrLm-12" value="início" style="strokeWidth=2;html=1;shape=mxgraph.flowchart.start_1;whiteSpace=wrap;fillColor=#99FF99;strokeColor=#00CC00;" vertex="1" parent="1">
          <mxGeometry x="500" y="30" width="120" height="60" as="geometry" />
        </mxCell>
        <mxCell id="yisJrsWNtF7iBzPSPrLm-16" value="" style="edgeStyle=orthogonalEdgeStyle;rounded=0;orthogonalLoop=1;jettySize=auto;html=1;" edge="1" parent="1" source="yisJrsWNtF7iBzPSPrLm-13" target="yisJrsWNtF7iBzPSPrLm-15">
          <mxGeometry relative="1" as="geometry" />
        </mxCell>
        <mxCell id="yisJrsWNtF7iBzPSPrLm-13" value="obter 1° nota" style="shape=parallelogram;perimeter=parallelogramPerimeter;whiteSpace=wrap;html=1;fixedSize=1;fillColor=#FF9933;strokeColor=#CC6600;strokeWidth=2;" vertex="1" parent="1">
          <mxGeometry x="500" y="120" width="120" height="60" as="geometry" />
        </mxCell>
        <mxCell id="yisJrsWNtF7iBzPSPrLm-18" value="" style="edgeStyle=orthogonalEdgeStyle;rounded=0;orthogonalLoop=1;jettySize=auto;html=1;" edge="1" parent="1" source="yisJrsWNtF7iBzPSPrLm-15" target="yisJrsWNtF7iBzPSPrLm-17">
          <mxGeometry relative="1" as="geometry" />
        </mxCell>
        <mxCell id="yisJrsWNtF7iBzPSPrLm-15" value="obter 2° nota" style="shape=parallelogram;perimeter=parallelogramPerimeter;whiteSpace=wrap;html=1;fixedSize=1;fillColor=#FF9933;strokeColor=#CC6600;strokeWidth=2;" vertex="1" parent="1">
          <mxGeometry x="500" y="230" width="120" height="60" as="geometry" />
        </mxCell>
        <mxCell id="yisJrsWNtF7iBzPSPrLm-20" value="" style="edgeStyle=orthogonalEdgeStyle;rounded=0;orthogonalLoop=1;jettySize=auto;html=1;" edge="1" parent="1" source="yisJrsWNtF7iBzPSPrLm-17" target="yisJrsWNtF7iBzPSPrLm-19">
          <mxGeometry relative="1" as="geometry" />
        </mxCell>
        <mxCell id="yisJrsWNtF7iBzPSPrLm-17" value="realiza a soma dos cálculos" style="whiteSpace=wrap;html=1;fillColor=#007FFF;strokeColor=#0000CC;strokeWidth=2;" vertex="1" parent="1">
          <mxGeometry x="500" y="350" width="120" height="60" as="geometry" />
        </mxCell>
        <mxCell id="yisJrsWNtF7iBzPSPrLm-22" value="" style="edgeStyle=orthogonalEdgeStyle;rounded=0;orthogonalLoop=1;jettySize=auto;html=1;" edge="1" parent="1" source="yisJrsWNtF7iBzPSPrLm-19" target="yisJrsWNtF7iBzPSPrLm-21">
          <mxGeometry relative="1" as="geometry" />
        </mxCell>
        <mxCell id="yisJrsWNtF7iBzPSPrLm-25" value="SIM&lt;br&gt;" style="edgeLabel;html=1;align=center;verticalAlign=middle;resizable=0;points=[];" vertex="1" connectable="0" parent="yisJrsWNtF7iBzPSPrLm-22">
          <mxGeometry x="0.1314" y="-2" relative="1" as="geometry">
            <mxPoint y="-17" as="offset" />
          </mxGeometry>
        </mxCell>
        <mxCell id="yisJrsWNtF7iBzPSPrLm-24" value="" style="edgeStyle=orthogonalEdgeStyle;rounded=0;orthogonalLoop=1;jettySize=auto;html=1;" edge="1" parent="1" source="yisJrsWNtF7iBzPSPrLm-19" target="yisJrsWNtF7iBzPSPrLm-23">
          <mxGeometry relative="1" as="geometry" />
        </mxCell>
        <mxCell id="yisJrsWNtF7iBzPSPrLm-26" value="NÃO&lt;br&gt;" style="edgeLabel;html=1;align=center;verticalAlign=middle;resizable=0;points=[];" vertex="1" connectable="0" parent="yisJrsWNtF7iBzPSPrLm-24">
          <mxGeometry x="-0.184" y="2" relative="1" as="geometry">
            <mxPoint y="-17" as="offset" />
          </mxGeometry>
        </mxCell>
        <mxCell id="yisJrsWNtF7iBzPSPrLm-19" value="média acima de 7?&lt;br&gt;" style="rhombus;whiteSpace=wrap;html=1;fillColor=#FFFF99;strokeColor=#CCCC00;strokeWidth=2;" vertex="1" parent="1">
          <mxGeometry x="500" y="450" width="120" height="90" as="geometry" />
        </mxCell>
        <mxCell id="yisJrsWNtF7iBzPSPrLm-28" value="" style="edgeStyle=orthogonalEdgeStyle;rounded=0;orthogonalLoop=1;jettySize=auto;html=1;" edge="1" parent="1" source="yisJrsWNtF7iBzPSPrLm-21" target="yisJrsWNtF7iBzPSPrLm-27">
          <mxGeometry relative="1" as="geometry">
            <Array as="points">
              <mxPoint x="700" y="710" />
            </Array>
          </mxGeometry>
        </mxCell>
        <mxCell id="yisJrsWNtF7iBzPSPrLm-21" value="exibir &quot;aprovado&quot;" style="strokeWidth=2;html=1;shape=mxgraph.flowchart.display;whiteSpace=wrap;fillColor=#FF9933;strokeColor=#CC6600;" vertex="1" parent="1">
          <mxGeometry x="650" y="570" width="100" height="60" as="geometry" />
        </mxCell>
        <mxCell id="yisJrsWNtF7iBzPSPrLm-29" value="" style="edgeStyle=orthogonalEdgeStyle;rounded=0;orthogonalLoop=1;jettySize=auto;html=1;" edge="1" parent="1" source="yisJrsWNtF7iBzPSPrLm-23" target="yisJrsWNtF7iBzPSPrLm-27">
          <mxGeometry relative="1" as="geometry">
            <Array as="points">
              <mxPoint x="420" y="710" />
            </Array>
          </mxGeometry>
        </mxCell>
        <mxCell id="yisJrsWNtF7iBzPSPrLm-23" value="exibir &quot;reprovado&quot;" style="strokeWidth=2;html=1;shape=mxgraph.flowchart.display;whiteSpace=wrap;direction=west;fillColor=#FF9933;strokeColor=#CC6600;" vertex="1" parent="1">
          <mxGeometry x="364" y="570" width="100" height="60" as="geometry" />
        </mxCell>
        <mxCell id="yisJrsWNtF7iBzPSPrLm-27" value="fim&lt;br&gt;" style="strokeWidth=2;html=1;shape=mxgraph.flowchart.start_2;whiteSpace=wrap;fillColor=#FF3333;strokeColor=#CC0000;" vertex="1" parent="1">
          <mxGeometry x="507.5" y="650" width="105" height="100" as="geometry" />
        </mxCell>
      </root>
    </mxGraphModel>
  </diagram>
  <diagram id="9KuwpRjFWhjtA12SmaRD" name="Página-2">
    <mxGraphModel dx="1500" dy="1976" grid="1" gridSize="10" guides="1" tooltips="1" connect="1" arrows="1" fold="1" page="1" pageScale="1" pageWidth="827" pageHeight="1169" math="0" shadow="0">
      <root>
        <mxCell id="0" />
        <mxCell id="1" parent="0" />
        <mxCell id="eVq-SHPCy2STq2wjOn1y-3" value="" style="edgeStyle=orthogonalEdgeStyle;rounded=0;orthogonalLoop=1;jettySize=auto;html=1;" edge="1" parent="1" source="eVq-SHPCy2STq2wjOn1y-1" target="eVq-SHPCy2STq2wjOn1y-2">
          <mxGeometry relative="1" as="geometry" />
        </mxCell>
        <mxCell id="eVq-SHPCy2STq2wjOn1y-1" value="inicio" style="strokeWidth=2;html=1;shape=mxgraph.flowchart.start_2;whiteSpace=wrap;fillColor=#66FF66;strokeColor=#00CC00;" vertex="1" parent="1">
          <mxGeometry x="270" width="100" height="90" as="geometry" />
        </mxCell>
        <mxCell id="f9HsnmImbN39-voqj3KY-2" value="" style="edgeStyle=orthogonalEdgeStyle;rounded=0;orthogonalLoop=1;jettySize=auto;html=1;" edge="1" parent="1" source="eVq-SHPCy2STq2wjOn1y-2" target="f9HsnmImbN39-voqj3KY-1">
          <mxGeometry relative="1" as="geometry" />
        </mxCell>
        <mxCell id="eVq-SHPCy2STq2wjOn1y-2" value="solicite um número" style="shape=parallelogram;perimeter=parallelogramPerimeter;whiteSpace=wrap;html=1;fixedSize=1;fillColor=#FF9933;strokeColor=#CC6600;strokeWidth=2;" vertex="1" parent="1">
          <mxGeometry x="250" y="160" width="140" height="60" as="geometry" />
        </mxCell>
        <mxCell id="eVq-SHPCy2STq2wjOn1y-22" value="" style="edgeStyle=orthogonalEdgeStyle;rounded=0;orthogonalLoop=1;jettySize=auto;html=1;" edge="1" parent="1">
          <mxGeometry relative="1" as="geometry">
            <mxPoint x="360" y="450" as="sourcePoint" />
            <mxPoint x="470.00000000000045" y="450" as="targetPoint" />
          </mxGeometry>
        </mxCell>
        <mxCell id="eVq-SHPCy2STq2wjOn1y-25" value="SIM" style="edgeLabel;html=1;align=center;verticalAlign=middle;resizable=0;points=[];" vertex="1" connectable="0" parent="eVq-SHPCy2STq2wjOn1y-22">
          <mxGeometry x="-0.0743" y="-1" relative="1" as="geometry">
            <mxPoint x="-2" y="-11" as="offset" />
          </mxGeometry>
        </mxCell>
        <mxCell id="eVq-SHPCy2STq2wjOn1y-24" value="" style="edgeStyle=orthogonalEdgeStyle;rounded=0;orthogonalLoop=1;jettySize=auto;html=1;" edge="1" parent="1">
          <mxGeometry relative="1" as="geometry">
            <mxPoint x="280" y="450" as="sourcePoint" />
            <mxPoint x="169.99999999999977" y="450" as="targetPoint" />
          </mxGeometry>
        </mxCell>
        <mxCell id="eVq-SHPCy2STq2wjOn1y-26" value="NÃO" style="edgeLabel;html=1;align=center;verticalAlign=middle;resizable=0;points=[];" vertex="1" connectable="0" parent="eVq-SHPCy2STq2wjOn1y-24">
          <mxGeometry x="0.0171" y="-1" relative="1" as="geometry">
            <mxPoint y="-9" as="offset" />
          </mxGeometry>
        </mxCell>
        <mxCell id="f9HsnmImbN39-voqj3KY-5" value="" style="edgeStyle=orthogonalEdgeStyle;rounded=0;orthogonalLoop=1;jettySize=auto;html=1;" edge="1" parent="1" target="f9HsnmImbN39-voqj3KY-4">
          <mxGeometry relative="1" as="geometry">
            <mxPoint x="520.0000000000002" y="480" as="sourcePoint" />
            <Array as="points">
              <mxPoint x="520" y="650" />
            </Array>
          </mxGeometry>
        </mxCell>
        <mxCell id="f9HsnmImbN39-voqj3KY-6" value="" style="edgeStyle=orthogonalEdgeStyle;rounded=0;orthogonalLoop=1;jettySize=auto;html=1;" edge="1" parent="1" target="f9HsnmImbN39-voqj3KY-4">
          <mxGeometry relative="1" as="geometry">
            <mxPoint x="120" y="480" as="sourcePoint" />
            <Array as="points">
              <mxPoint x="120" y="650" />
            </Array>
          </mxGeometry>
        </mxCell>
        <mxCell id="cV4YTGe75cOsvrGVey0G-2" value="" style="edgeStyle=orthogonalEdgeStyle;rounded=0;orthogonalLoop=1;jettySize=auto;html=1;" edge="1" parent="1" source="f9HsnmImbN39-voqj3KY-1" target="cV4YTGe75cOsvrGVey0G-1">
          <mxGeometry relative="1" as="geometry" />
        </mxCell>
        <mxCell id="f9HsnmImbN39-voqj3KY-1" value="receba um número" style="whiteSpace=wrap;html=1;fillColor=#66B2FF;strokeColor=#0066CC;strokeWidth=2;" vertex="1" parent="1">
          <mxGeometry x="260" y="280" width="120" height="60" as="geometry" />
        </mxCell>
        <mxCell id="f9HsnmImbN39-voqj3KY-4" value="fim" style="rounded=1;whiteSpace=wrap;html=1;absoluteArcSize=1;arcSize=14;strokeWidth=2;fillColor=#FF6666;strokeColor=#CC0000;" vertex="1" parent="1">
          <mxGeometry x="270" y="620" width="100" height="60" as="geometry" />
        </mxCell>
        <mxCell id="cV4YTGe75cOsvrGVey0G-1" value="o número é maior que 0?" style="strokeWidth=2;html=1;shape=mxgraph.flowchart.decision;whiteSpace=wrap;fillColor=#FFFF99;strokeColor=#CCCC00;" vertex="1" parent="1">
          <mxGeometry x="270" y="400" width="100" height="100" as="geometry" />
        </mxCell>
        <mxCell id="9abmbODIB8OIWwbBheHO-1" value="exibir &quot;POSITIVO&quot;" style="strokeWidth=2;html=1;shape=mxgraph.flowchart.display;whiteSpace=wrap;fillColor=#FF9933;strokeColor=#CC6600;" vertex="1" parent="1">
          <mxGeometry x="470" y="420" width="100" height="60" as="geometry" />
        </mxCell>
        <mxCell id="9abmbODIB8OIWwbBheHO-2" value="exibir &quot;NEGATIVO&quot;" style="strokeWidth=2;html=1;shape=mxgraph.flowchart.display;whiteSpace=wrap;direction=west;fillColor=#FF9933;strokeColor=#CC6600;" vertex="1" parent="1">
          <mxGeometry x="70" y="420" width="100" height="60" as="geometry" />
        </mxCell>
      </root>
    </mxGraphModel>
  </diagram>
  <diagram id="58wciHWvsg6K4HXTli_Q" name="Página-3">
    <mxGraphModel dx="2442" dy="869" grid="1" gridSize="10" guides="1" tooltips="1" connect="1" arrows="1" fold="1" page="1" pageScale="1" pageWidth="827" pageHeight="1169" math="0" shadow="0">
      <root>
        <mxCell id="0" />
        <mxCell id="1" parent="0" />
        <mxCell id="dMfOE5IPzfcFUfJ6dMgP-2" value="" style="edgeStyle=orthogonalEdgeStyle;rounded=0;orthogonalLoop=1;jettySize=auto;html=1;" edge="1" parent="1" source="7CEDCT08lnoeyjoAlKJh-1" target="dMfOE5IPzfcFUfJ6dMgP-1">
          <mxGeometry relative="1" as="geometry" />
        </mxCell>
        <mxCell id="7CEDCT08lnoeyjoAlKJh-1" value="inicio&amp;nbsp;" style="strokeWidth=2;html=1;shape=mxgraph.flowchart.start_2;whiteSpace=wrap;fillColor=#66FF66;strokeColor=#00CC00;" vertex="1" parent="1">
          <mxGeometry x="110" y="40" width="100" height="80" as="geometry" />
        </mxCell>
        <mxCell id="dMfOE5IPzfcFUfJ6dMgP-5" value="" style="edgeStyle=orthogonalEdgeStyle;rounded=0;orthogonalLoop=1;jettySize=auto;html=1;" edge="1" parent="1" source="dMfOE5IPzfcFUfJ6dMgP-1" target="dMfOE5IPzfcFUfJ6dMgP-4">
          <mxGeometry relative="1" as="geometry" />
        </mxCell>
        <mxCell id="dMfOE5IPzfcFUfJ6dMgP-1" value="obter o 1° número" style="shape=parallelogram;perimeter=parallelogramPerimeter;whiteSpace=wrap;html=1;fixedSize=1;fillColor=#FF9933;strokeColor=#CC6600;strokeWidth=2;" vertex="1" parent="1">
          <mxGeometry x="100" y="190" width="120" height="60" as="geometry" />
        </mxCell>
        <mxCell id="0nIWyrLs0qliMYiMDJGg-2" value="" style="edgeStyle=orthogonalEdgeStyle;rounded=0;orthogonalLoop=1;jettySize=auto;html=1;" edge="1" parent="1" source="dMfOE5IPzfcFUfJ6dMgP-4" target="0nIWyrLs0qliMYiMDJGg-1">
          <mxGeometry relative="1" as="geometry" />
        </mxCell>
        <mxCell id="dMfOE5IPzfcFUfJ6dMgP-4" value="obter o 2° número&amp;nbsp;" style="shape=parallelogram;perimeter=parallelogramPerimeter;whiteSpace=wrap;html=1;fixedSize=1;fillColor=#FF9933;strokeColor=#CC6600;strokeWidth=2;" vertex="1" parent="1">
          <mxGeometry x="100" y="320" width="120" height="60" as="geometry" />
        </mxCell>
        <mxCell id="0nIWyrLs0qliMYiMDJGg-6" value="" style="edgeStyle=orthogonalEdgeStyle;rounded=0;orthogonalLoop=1;jettySize=auto;html=1;" edge="1" parent="1" source="0nIWyrLs0qliMYiMDJGg-1" target="0nIWyrLs0qliMYiMDJGg-3">
          <mxGeometry relative="1" as="geometry" />
        </mxCell>
        <mxCell id="0nIWyrLs0qliMYiMDJGg-8" value="SIM" style="edgeLabel;html=1;align=center;verticalAlign=middle;resizable=0;points=[];" vertex="1" connectable="0" parent="0nIWyrLs0qliMYiMDJGg-6">
          <mxGeometry x="-0.0133" relative="1" as="geometry">
            <mxPoint x="-30" y="-48" as="offset" />
          </mxGeometry>
        </mxCell>
        <mxCell id="Fze1XDzbkmqZ_aazZje2-1" value="" style="edgeStyle=orthogonalEdgeStyle;rounded=0;orthogonalLoop=1;jettySize=auto;html=1;" edge="1" parent="1" source="0nIWyrLs0qliMYiMDJGg-1" target="0nIWyrLs0qliMYiMDJGg-4">
          <mxGeometry relative="1" as="geometry" />
        </mxCell>
        <mxCell id="Fze1XDzbkmqZ_aazZje2-2" value="NÃO" style="edgeLabel;html=1;align=center;verticalAlign=middle;resizable=0;points=[];" vertex="1" connectable="0" parent="Fze1XDzbkmqZ_aazZje2-1">
          <mxGeometry x="-0.7668" y="-8" relative="1" as="geometry">
            <mxPoint x="1" y="-12" as="offset" />
          </mxGeometry>
        </mxCell>
        <mxCell id="0nIWyrLs0qliMYiMDJGg-1" value="o 1° número é maior que o 2°?" style="rhombus;whiteSpace=wrap;html=1;fillColor=#FFFF66;strokeColor=#CCCC00;strokeWidth=2;" vertex="1" parent="1">
          <mxGeometry x="110" y="420" width="100" height="80" as="geometry" />
        </mxCell>
        <mxCell id="qmblQSokDjzJIcirwbXh-8" value="" style="edgeStyle=orthogonalEdgeStyle;rounded=0;orthogonalLoop=1;jettySize=auto;html=1;" edge="1" parent="1" source="0nIWyrLs0qliMYiMDJGg-3" target="qmblQSokDjzJIcirwbXh-6">
          <mxGeometry relative="1" as="geometry">
            <Array as="points">
              <mxPoint x="320" y="820" />
            </Array>
          </mxGeometry>
        </mxCell>
        <mxCell id="0nIWyrLs0qliMYiMDJGg-3" value="exibir &quot;MAIOR&quot;" style="strokeWidth=2;html=1;shape=mxgraph.flowchart.display;whiteSpace=wrap;fillColor=#FF9933;strokeColor=#CC6600;" vertex="1" parent="1">
          <mxGeometry x="260" y="650" width="100" height="60" as="geometry" />
        </mxCell>
        <mxCell id="qmblQSokDjzJIcirwbXh-7" value="" style="edgeStyle=orthogonalEdgeStyle;rounded=0;orthogonalLoop=1;jettySize=auto;html=1;" edge="1" parent="1" source="0nIWyrLs0qliMYiMDJGg-4" target="qmblQSokDjzJIcirwbXh-6">
          <mxGeometry relative="1" as="geometry">
            <Array as="points">
              <mxPoint x="40" y="820" />
            </Array>
          </mxGeometry>
        </mxCell>
        <mxCell id="0nIWyrLs0qliMYiMDJGg-4" value="exibir &#39;MENOR&quot;" style="strokeWidth=2;html=1;shape=mxgraph.flowchart.display;whiteSpace=wrap;direction=west;fillColor=#FF9933;strokeColor=#CC6600;" vertex="1" parent="1">
          <mxGeometry y="650" width="100" height="60" as="geometry" />
        </mxCell>
        <mxCell id="qmblQSokDjzJIcirwbXh-6" value="fim" style="ellipse;whiteSpace=wrap;html=1;fillColor=#FF6666;strokeColor=#CC0000;strokeWidth=2;" vertex="1" parent="1">
          <mxGeometry x="140" y="760" width="80" height="80" as="geometry" />
        </mxCell>
      </root>
    </mxGraphModel>
  </diagram>
  <diagram id="z1b_Eud0yIPAsSpf09Ji" name="Página-4">
    <mxGraphModel dx="1909" dy="1027" grid="1" gridSize="10" guides="1" tooltips="1" connect="1" arrows="1" fold="1" page="1" pageScale="1" pageWidth="827" pageHeight="1169" math="0" shadow="0">
      <root>
        <mxCell id="0" />
        <mxCell id="1" parent="0" />
        <mxCell id="778bHNoYRVBCYdEL_99n-3" value="" style="edgeStyle=orthogonalEdgeStyle;rounded=0;orthogonalLoop=1;jettySize=auto;html=1;" edge="1" parent="1" source="778bHNoYRVBCYdEL_99n-1" target="778bHNoYRVBCYdEL_99n-2">
          <mxGeometry relative="1" as="geometry" />
        </mxCell>
        <mxCell id="778bHNoYRVBCYdEL_99n-1" value="inicio&amp;nbsp;" style="strokeWidth=2;html=1;shape=mxgraph.flowchart.start_2;whiteSpace=wrap;fillColor=#66FF66;strokeColor=#00CC00;" vertex="1" parent="1">
          <mxGeometry x="314" width="100" height="100" as="geometry" />
        </mxCell>
        <mxCell id="9mDkQLDU29lKUawmAOiC-2" value="" style="edgeStyle=orthogonalEdgeStyle;rounded=0;orthogonalLoop=1;jettySize=auto;html=1;" edge="1" parent="1" source="778bHNoYRVBCYdEL_99n-2" target="9mDkQLDU29lKUawmAOiC-1">
          <mxGeometry relative="1" as="geometry" />
        </mxCell>
        <mxCell id="778bHNoYRVBCYdEL_99n-2" value="idade" style="shape=parallelogram;perimeter=parallelogramPerimeter;whiteSpace=wrap;html=1;fixedSize=1;fillColor=#FF9933;strokeColor=#CC6600;strokeWidth=2;" vertex="1" parent="1">
          <mxGeometry x="304" y="160" width="120" height="60" as="geometry" />
        </mxCell>
        <mxCell id="9mDkQLDU29lKUawmAOiC-4" value="" style="edgeStyle=orthogonalEdgeStyle;rounded=0;orthogonalLoop=1;jettySize=auto;html=1;" edge="1" parent="1" source="9mDkQLDU29lKUawmAOiC-1" target="9mDkQLDU29lKUawmAOiC-3">
          <mxGeometry relative="1" as="geometry" />
        </mxCell>
        <mxCell id="9mDkQLDU29lKUawmAOiC-5" value="SIM" style="edgeLabel;html=1;align=center;verticalAlign=middle;resizable=0;points=[];" vertex="1" connectable="0" parent="9mDkQLDU29lKUawmAOiC-4">
          <mxGeometry x="-0.4455" relative="1" as="geometry">
            <mxPoint y="-10" as="offset" />
          </mxGeometry>
        </mxCell>
        <mxCell id="9mDkQLDU29lKUawmAOiC-7" value="" style="edgeStyle=orthogonalEdgeStyle;rounded=0;orthogonalLoop=1;jettySize=auto;html=1;" edge="1" parent="1" source="9mDkQLDU29lKUawmAOiC-1" target="9mDkQLDU29lKUawmAOiC-6">
          <mxGeometry relative="1" as="geometry" />
        </mxCell>
        <mxCell id="9mDkQLDU29lKUawmAOiC-11" value="NÃO" style="edgeLabel;html=1;align=center;verticalAlign=middle;resizable=0;points=[];" vertex="1" connectable="0" parent="9mDkQLDU29lKUawmAOiC-7">
          <mxGeometry x="-0.4412" y="3" relative="1" as="geometry">
            <mxPoint y="-13" as="offset" />
          </mxGeometry>
        </mxCell>
        <mxCell id="9mDkQLDU29lKUawmAOiC-1" value="&amp;gt;16" style="rhombus;whiteSpace=wrap;html=1;fillColor=#FFFF66;strokeColor=#CCCC00;strokeWidth=2;" vertex="1" parent="1">
          <mxGeometry x="324" y="270" width="80" height="80" as="geometry" />
        </mxCell>
        <mxCell id="9mDkQLDU29lKUawmAOiC-9" value="" style="edgeStyle=orthogonalEdgeStyle;rounded=0;orthogonalLoop=1;jettySize=auto;html=1;" edge="1" parent="1" source="9mDkQLDU29lKUawmAOiC-3" target="9mDkQLDU29lKUawmAOiC-8">
          <mxGeometry relative="1" as="geometry" />
        </mxCell>
        <mxCell id="9mDkQLDU29lKUawmAOiC-10" value="SIM&amp;nbsp;" style="edgeLabel;html=1;align=center;verticalAlign=middle;resizable=0;points=[];" vertex="1" connectable="0" parent="9mDkQLDU29lKUawmAOiC-9">
          <mxGeometry x="-0.4653" y="-3" relative="1" as="geometry">
            <mxPoint y="-13" as="offset" />
          </mxGeometry>
        </mxCell>
        <mxCell id="9mDkQLDU29lKUawmAOiC-13" value="" style="edgeStyle=orthogonalEdgeStyle;rounded=0;orthogonalLoop=1;jettySize=auto;html=1;" edge="1" parent="1" source="9mDkQLDU29lKUawmAOiC-3" target="9mDkQLDU29lKUawmAOiC-12">
          <mxGeometry relative="1" as="geometry" />
        </mxCell>
        <mxCell id="9mDkQLDU29lKUawmAOiC-14" value="NÃO" style="edgeLabel;html=1;align=center;verticalAlign=middle;resizable=0;points=[];" vertex="1" connectable="0" parent="9mDkQLDU29lKUawmAOiC-13">
          <mxGeometry x="-0.344" y="-3" relative="1" as="geometry">
            <mxPoint y="-7" as="offset" />
          </mxGeometry>
        </mxCell>
        <mxCell id="9mDkQLDU29lKUawmAOiC-3" value="&amp;gt;18" style="rhombus;whiteSpace=wrap;html=1;fillColor=#FFFF66;strokeColor=#CCCC00;strokeWidth=2;" vertex="1" parent="1">
          <mxGeometry x="480" y="370" width="80" height="80" as="geometry" />
        </mxCell>
        <mxCell id="9mDkQLDU29lKUawmAOiC-6" value="não pode&amp;nbsp;" style="strokeWidth=2;html=1;shape=mxgraph.flowchart.display;whiteSpace=wrap;fillColor=#FF9933;strokeColor=#CC6600;" vertex="1" parent="1">
          <mxGeometry x="150" y="380" width="100" height="60" as="geometry" />
        </mxCell>
        <mxCell id="91Z7f5He9VHOxUpulh-c-2" value="" style="edgeStyle=orthogonalEdgeStyle;rounded=0;orthogonalLoop=1;jettySize=auto;html=1;" edge="1" parent="1" source="9mDkQLDU29lKUawmAOiC-8" target="91Z7f5He9VHOxUpulh-c-1">
          <mxGeometry relative="1" as="geometry">
            <Array as="points">
              <mxPoint x="680" y="640" />
            </Array>
          </mxGeometry>
        </mxCell>
        <mxCell id="9mDkQLDU29lKUawmAOiC-8" value="obrigatório" style="strokeWidth=2;html=1;shape=mxgraph.flowchart.display;whiteSpace=wrap;fillColor=#FF9933;strokeColor=#CC6600;" vertex="1" parent="1">
          <mxGeometry x="630" y="480" width="100" height="60" as="geometry" />
        </mxCell>
        <mxCell id="91Z7f5He9VHOxUpulh-c-3" value="" style="edgeStyle=orthogonalEdgeStyle;rounded=0;orthogonalLoop=1;jettySize=auto;html=1;" edge="1" parent="1" source="9mDkQLDU29lKUawmAOiC-12" target="91Z7f5He9VHOxUpulh-c-1">
          <mxGeometry relative="1" as="geometry">
            <Array as="points">
              <mxPoint x="400" y="640" />
            </Array>
          </mxGeometry>
        </mxCell>
        <mxCell id="9mDkQLDU29lKUawmAOiC-12" value="opcional" style="strokeWidth=2;html=1;shape=mxgraph.flowchart.display;whiteSpace=wrap;direction=west;fillColor=#FF9933;strokeColor=#CC6600;" vertex="1" parent="1">
          <mxGeometry x="350" y="480" width="100" height="60" as="geometry" />
        </mxCell>
        <mxCell id="91Z7f5He9VHOxUpulh-c-1" value="fim" style="ellipse;whiteSpace=wrap;html=1;fillColor=#FF6666;strokeColor=#CC0000;strokeWidth=2;" vertex="1" parent="1">
          <mxGeometry x="500" y="600" width="80" height="80" as="geometry" />
        </mxCell>
      </root>
    </mxGraphModel>
  </diagram>
</mxfile>
